<?xml version="1.0" encoding="utf-8"?>
<!-- Generator: Adobe Illustrator 23.0.2, SVG Export Plug-In . SVG Version: 6.00 Build 0)  -->
<svg version="1.0" id="Layer_1" xmlns="http://www.w3.org/2000/svg" xmlns:xlink="http://www.w3.org/1999/xlink" x="0px" y="0px"
	 width="551.95px" height="421.11px" viewBox="0 0 551.95 421.11" style="enable-background:new 0 0 551.95 421.11;"
	 xml:space="preserve">
<style type="text/css">
	.st0{fill:#D4322E;}
	.st1{fill:url(#SVGID_1_);}
	.st2{fill:url(#SVGID_2_);}
	.st3{fill:url(#SVGID_3_);}
	.st4{fill:url(#SVGID_4_);}
	.st5{fill:url(#SVGID_5_);}
	.st6{fill:url(#SVGID_6_);}
	.st7{fill:url(#SVGID_7_);}
	.st8{fill:url(#SVGID_8_);}
</style>
<g>
	<g>
		<path class="st0" d="M215.05,270.68c-2.02,15.98-10.6,25.07-25.57,26.92l-0.34,1.51c6.56,1.18,11.61,3.53,14.81,7.24
			c3.19,3.7,4.71,8.58,4.71,14.8c0,0.84,0,1.68-0.17,2.53c-0.17,0.84-0.17,1.68-0.17,2.19l-3.03,24.23h-30.12l2.52-21.03
			c0-0.84,0-1.85,0.17-2.87c0.17-1.01,0.17-1.68,0.17-2.02c0-4.21-1.01-7.07-3.03-8.58c-2.19-1.51-5.88-2.19-11.1-2.19h-19.85
			l-4.55,36.68h-29.44l14.98-122.31h47.61c15.81,0,26.92,1.68,33.14,4.88c7.23,3.87,10.94,10.6,10.94,20.53
			c0,2.19-0.17,4.71-0.51,7.24L215.05,270.68z M185.61,265.8c0.16-0.84,0.16-1.85,0.16-2.69c0-4.04-1.01-6.9-3.19-8.41
			c-2.19-1.51-5.89-2.35-11.11-2.35h-20.02l-4.37,36.17h20.02c6.06,0,10.26-1.02,12.79-3.2c2.52-2.19,4.04-6.22,4.88-12.45
			l0.67-4.88C185.43,267.48,185.43,266.64,185.61,265.8z"/>
		<path class="st0" d="M288.53,349.56h-25.28l1.58-12.29c-4.22,4.92-8.26,8.43-11.94,10.36c-3.69,2.1-7.72,3.16-11.76,3.16h-10.36
			c-6.32,0-11.23-1.76-14.56-5.09c-3.34-3.33-5.09-8.25-5.09-14.39c0-0.7,0-1.58,0.18-2.46c0.18-0.88,0.18-1.75,0.18-2.28l1.05-8.77
			c0.88-7.38,3.85-13.17,8.77-17.2c4.91-4.04,11.58-6.15,19.83-6.15h7.91c4.21,0,7.9,0.88,10.88,2.64c2.99,1.76,5.8,4.91,8.61,9.31
			l2.99-23.52c0.17-0.53,0.17-1.41,0.17-2.46c0-5.09-2.81-7.54-8.6-7.54h-4.92c-3.69,0-6.49,0.35-8.08,1.23
			c-1.57,0.87-2.81,2.81-3.5,5.61h-25.11c1.41-7.72,4.57-13.34,9.66-16.67c4.91-3.34,12.11-4.92,21.77-4.92h13.69
			c10.71,0,18.43,1.75,23.17,5.09c4.57,3.51,6.85,9.3,6.85,17.38v2.28c0,0.7,0,1.4,0,2.11c-0.18,0.87-0.35,1.58-0.35,2.1
			L288.53,349.56z M266.94,316.91c0-5.26-3.16-7.89-9.3-7.89h-7.9c-6.84,0-10.88,3.33-11.76,10.01l-0.53,4.91
			c-0.17,0.53-0.17,1.23-0.17,2.11c0,5.27,3.16,7.9,9.48,7.9h7.91c6.84,0,10.71-3.34,11.58-10.01l0.53-4.91
			C266.94,318.49,266.94,317.79,266.94,316.91z"/>
		<path class="st0" d="M378.52,313.4c-1.58,12.46-4.92,21.59-10.01,27.38c-5.27,5.97-12.82,8.95-22.65,8.95
			c-5.78,0-10.53-0.87-14.57-2.63c-4.04-1.75-6.66-4.57-7.9-8.25h-1.57l-5.45,45.11h-25.1l15.27-124.63h24.23l-1.41,11.58h1.58
			c2.81-4.56,6.49-7.9,10.88-10c4.39-1.94,9.65-2.99,15.45-2.99c8.25,0,14.39,2.11,18.44,6.5c4.04,4.39,5.97,10.88,5.97,19.83
			c0,1.58,0,3.16,0,4.74c-0.35,2.28-0.53,4.04-0.71,5.26L378.52,313.4z M355.53,288.12c0-3.86-0.7-6.67-2.28-8.25
			c-1.58-1.58-4.21-2.46-8.25-2.46h-3.34c-5.09,0-8.43,1.41-10.36,4.22c-1.93,2.81-3.33,7.72-4.21,14.92l-1.76,14.39
			c-0.35,3.16-0.53,5.96-0.53,8.43c0,3.86,0.71,6.67,2.29,8.25c1.58,1.58,4.21,2.46,8.25,2.46h3.34c5.09,0,8.6-1.58,10.71-4.56
			c1.75-2.63,2.98-7.37,3.86-14.57l1.75-14.39C355.35,293.39,355.53,290.58,355.53,288.12z"/>
		<path class="st0" d="M406.43,349.56h-25.62l10.88-89.17h25.62L406.43,349.56z"/>
		<path class="st0" d="M493.39,349.56h-24.4l1.76-11.41l-1.58,0.17c-2.81,4.57-6.32,7.73-10.71,9.65c-4.4,1.94-9.65,2.81-15.8,2.81
			c-16.32,0-24.4-8.6-24.4-25.98c0-1.58,0-2.98,0-4.22c0-1.05,0.18-3.16,0.7-6.14l2.28-19.14c1.58-12.29,4.92-21.41,10.19-27.38
			c5.09-5.79,12.64-8.78,22.47-8.78c5.78,0,10.71,0.88,14.92,2.64c4.21,1.75,7.02,4.38,8.25,8.07l0.87,0.17l5.8-48.1h25.28
			L493.39,349.56z M474.96,293.56c0.17-1.23,0.17-2.63,0.17-4.21c0-3.68-0.7-6.49-2.29-8.07c-1.57-1.58-4.21-2.46-8.24-2.46h-3.33
			c-5.1,0-8.43,1.4-10.36,4.21c-1.93,2.81-3.34,7.73-4.21,14.92l-1.75,14.22c-0.35,3.16-0.52,5.97-0.52,8.43
			c0,3.86,0.7,6.67,2.28,8.25c1.58,1.58,4.21,2.46,8.25,2.46h3.34c5.09,0,8.43-1.41,10.36-4.21c1.93-2.81,3.15-7.72,4.04-14.92
			l1.75-14.22C474.61,296.37,474.79,294.97,474.96,293.56z"/>
	</g>
	<polygon class="st0" points="391.16,237.21 458.58,85.42 418.18,244.82 	"/>
	<path d="M408.59,215.24c-24.85,0-24.85,38.54,0,38.54C433.44,253.78,433.44,215.24,408.59,215.24z"/>
	<g>
		<path d="M78.58,411.27l-2.59,7.85h-3.33l8.48-24.94h3.89l8.51,24.94h-3.44l-2.66-7.85H78.58z M86.76,408.75l-2.44-7.18
			c-0.55-1.63-0.92-3.11-1.3-4.55h-0.07c-0.37,1.48-0.78,3-1.26,4.52l-2.44,7.22H86.76z"/>
		<path d="M117.78,418.3c-1.18,0.59-3.55,1.18-6.59,1.18c-7.03,0-12.32-4.44-12.32-12.62c0-7.81,5.29-13.1,13.03-13.1
			c3.11,0,5.07,0.67,5.92,1.11l-0.78,2.63c-1.22-0.59-2.96-1.04-5.03-1.04c-5.85,0-9.73,3.74-9.73,10.29
			c0,6.11,3.52,10.03,9.59,10.03c1.96,0,3.96-0.41,5.26-1.04L117.78,418.3z"/>
		<path d="M142.17,418.3c-1.18,0.59-3.55,1.18-6.59,1.18c-7.03,0-12.32-4.44-12.32-12.62c0-7.81,5.29-13.1,13.03-13.1
			c3.11,0,5.07,0.67,5.92,1.11l-0.78,2.63c-1.22-0.59-2.96-1.04-5.03-1.04c-5.85,0-9.73,3.74-9.73,10.29
			c0,6.11,3.52,10.03,9.59,10.03c1.96,0,3.96-0.41,5.26-1.04L142.17,418.3z"/>
		<path d="M162.82,407.42h-9.7v8.99h10.81v2.7H149.9v-24.94h13.47v2.7h-10.25v7.88h9.7V407.42z"/>
		<path d="M171.82,394.17h3.22v22.24h10.66v2.7h-13.88V394.17z"/>
		<path d="M205.9,407.42h-9.7v8.99h10.81v2.7h-14.03v-24.94h13.47v2.7h-10.25v7.88h9.7V407.42z"/>
		<path d="M214.9,394.5c1.63-0.33,3.96-0.52,6.18-0.52c3.44,0,5.66,0.63,7.22,2.04c1.26,1.11,1.96,2.81,1.96,4.74
			c0,3.29-2.07,5.48-4.7,6.37v0.11c1.92,0.67,3.07,2.44,3.66,5.03c0.81,3.48,1.41,5.88,1.92,6.85h-3.33
			c-0.41-0.7-0.96-2.85-1.66-5.96c-0.74-3.44-2.07-4.74-5-4.85h-3.04v10.81h-3.22V394.5z M218.12,405.86h3.29
			c3.44,0,5.62-1.89,5.62-4.74c0-3.22-2.33-4.63-5.74-4.66c-1.55,0-2.66,0.15-3.18,0.3V405.86z"/>
		<path d="M242.73,411.27l-2.59,7.85h-3.33l8.48-24.94h3.89l8.51,24.94h-3.44l-2.66-7.85H242.73z M250.91,408.75l-2.44-7.18
			c-0.55-1.63-0.93-3.11-1.3-4.55h-0.07c-0.37,1.48-0.78,3-1.26,4.52l-2.44,7.22H250.91z"/>
		<path d="M266.94,396.91h-7.59v-2.74h18.47v2.74h-7.62v22.21h-3.26V396.91z"/>
		<path d="M287.52,394.17v24.94h-3.22v-24.94H287.52z"/>
		<path d="M318.16,406.38c0,8.59-5.22,13.14-11.58,13.14c-6.59,0-11.21-5.11-11.21-12.66c0-7.92,4.92-13.1,11.58-13.1
			C313.76,393.76,318.16,398.98,318.16,406.38z M298.8,406.79c0,5.33,2.89,10.1,7.96,10.1c5.11,0,7.99-4.7,7.99-10.36
			c0-4.96-2.59-10.14-7.96-10.14C301.47,396.39,298.8,401.31,298.8,406.79z"/>
		<path d="M326.05,419.11v-24.94h3.52l7.99,12.62c1.85,2.92,3.29,5.55,4.48,8.11l0.07-0.04c-0.3-3.33-0.37-6.37-0.37-10.25v-10.44
			h3.03v24.94h-3.26l-7.92-12.66c-1.74-2.78-3.41-5.63-4.66-8.33l-0.11,0.04c0.19,3.15,0.26,6.14,0.26,10.29v10.66H326.05z"/>
		<path d="M365.65,394.46c1.55-0.26,3.59-0.48,6.18-0.48c3.18,0,5.51,0.74,6.99,2.07c1.37,1.18,2.18,3,2.18,5.22
			c0,2.26-0.67,4.03-1.92,5.33c-1.7,1.81-4.48,2.74-7.62,2.74c-0.96,0-1.85-0.04-2.59-0.22v9.99h-3.22V394.46z M368.87,406.49
			c0.7,0.19,1.59,0.26,2.66,0.26c3.89,0,6.26-1.89,6.26-5.33c0-3.29-2.33-4.88-5.88-4.88c-1.41,0-2.48,0.11-3.03,0.26V406.49z"/>
		<path d="M389.97,411.27l-2.59,7.85h-3.33l8.48-24.94h3.89l8.51,24.94h-3.44l-2.66-7.85H389.97z M398.15,408.75l-2.44-7.18
			c-0.56-1.63-0.93-3.11-1.3-4.55h-0.07c-0.37,1.48-0.78,3-1.26,4.52l-2.44,7.22H398.15z"/>
		<path d="M412.29,394.5c1.63-0.33,3.96-0.52,6.18-0.52c3.44,0,5.66,0.63,7.22,2.04c1.26,1.11,1.96,2.81,1.96,4.74
			c0,3.29-2.07,5.48-4.7,6.37v0.11c1.92,0.67,3.07,2.44,3.66,5.03c0.81,3.48,1.41,5.88,1.92,6.85h-3.33
			c-0.41-0.7-0.96-2.85-1.67-5.96c-0.74-3.44-2.07-4.74-5-4.85h-3.03v10.81h-3.22V394.5z M415.51,405.86h3.29
			c3.44,0,5.63-1.89,5.63-4.74c0-3.22-2.33-4.63-5.74-4.66c-1.55,0-2.67,0.15-3.18,0.3V405.86z"/>
		<path d="M440.97,396.91h-7.59v-2.74h18.47v2.74h-7.62v22.21h-3.26V396.91z"/>
		<path d="M458.33,419.11v-24.94h3.52l7.99,12.62c1.85,2.92,3.29,5.55,4.48,8.11l0.07-0.04c-0.3-3.33-0.37-6.37-0.37-10.25v-10.44
			h3.03v24.94h-3.26l-7.92-12.66c-1.74-2.78-3.4-5.63-4.66-8.33l-0.11,0.04c0.19,3.15,0.26,6.14,0.26,10.29v10.66H458.33z"/>
		<path d="M499.3,407.42h-9.7v8.99h10.81v2.7h-14.03v-24.94h13.47v2.7h-10.25v7.88h9.7V407.42z"/>
		<path d="M508.3,394.5c1.63-0.33,3.96-0.52,6.18-0.52c3.44,0,5.66,0.63,7.22,2.04c1.26,1.11,1.96,2.81,1.96,4.74
			c0,3.29-2.07,5.48-4.7,6.37v0.11c1.92,0.67,3.07,2.44,3.66,5.03c0.81,3.48,1.41,5.88,1.92,6.85h-3.33
			c-0.41-0.7-0.96-2.85-1.67-5.96c-0.74-3.44-2.07-4.74-5-4.85h-3.03v10.81h-3.22V394.5z M511.52,405.86h3.29
			c3.44,0,5.63-1.89,5.63-4.74c0-3.22-2.33-4.63-5.74-4.66c-1.55,0-2.67,0.15-3.18,0.3V405.86z"/>
		<path d="M531.47,415.19c1.44,0.89,3.55,1.63,5.77,1.63c3.29,0,5.22-1.74,5.22-4.26c0-2.33-1.33-3.66-4.7-4.96
			c-4.07-1.44-6.59-3.55-6.59-7.07c0-3.89,3.22-6.77,8.07-6.77c2.55,0,4.41,0.59,5.51,1.22l-0.89,2.63
			c-0.81-0.44-2.48-1.18-4.74-1.18c-3.4,0-4.7,2.04-4.7,3.74c0,2.33,1.52,3.48,4.96,4.81c4.22,1.63,6.37,3.66,6.37,7.33
			c0,3.85-2.85,7.18-8.73,7.18c-2.41,0-5.03-0.7-6.37-1.59L531.47,415.19z"/>
	</g>
	<g>
		<linearGradient id="SVGID_1_" gradientUnits="userSpaceOnUse" x1="-67.1202" y1="331.6644" x2="514.9952" y2="-82.2101">
			<stop  offset="0" style="stop-color:#FEC733"/>
			<stop  offset="0.2178" style="stop-color:#FDC533"/>
			<stop  offset="0.3436" style="stop-color:#FABE34"/>
			<stop  offset="0.4459" style="stop-color:#F6B334"/>
			<stop  offset="0.5357" style="stop-color:#F0A334"/>
			<stop  offset="0.6172" style="stop-color:#EA9033"/>
			<stop  offset="0.6928" style="stop-color:#E37A32"/>
			<stop  offset="0.7631" style="stop-color:#DC5E30"/>
			<stop  offset="0.8287" style="stop-color:#D5352E"/>
			<stop  offset="0.8333" style="stop-color:#D4322E"/>
		</linearGradient>
		<path class="st1" d="M210.95,97.94l9.73,53.11c17.1-9.34,34.9-18.03,53.4-25.96l-10.26-56.03
			C245.43,77.97,227.78,87.63,210.95,97.94z"/>
		<linearGradient id="SVGID_2_" gradientUnits="userSpaceOnUse" x1="-57.9728" y1="344.5311" x2="524.1431" y2="-69.3437">
			<stop  offset="0" style="stop-color:#FEC733"/>
			<stop  offset="0.2178" style="stop-color:#FDC533"/>
			<stop  offset="0.3436" style="stop-color:#FABE34"/>
			<stop  offset="0.4459" style="stop-color:#F6B334"/>
			<stop  offset="0.5357" style="stop-color:#F0A334"/>
			<stop  offset="0.6172" style="stop-color:#EA9033"/>
			<stop  offset="0.6928" style="stop-color:#E37A32"/>
			<stop  offset="0.7631" style="stop-color:#DC5E30"/>
			<stop  offset="0.8287" style="stop-color:#D5352E"/>
			<stop  offset="0.8333" style="stop-color:#D4322E"/>
		</linearGradient>
		<path class="st2" d="M273.26,64.59l10.35,56.55c22.05-9.05,45-17.05,68.74-23.9l-10.93-59.72
			C317.78,45.42,295.03,54.49,273.26,64.59z"/>
		<linearGradient id="SVGID_3_" gradientUnits="userSpaceOnUse" x1="-32.4613" y1="380.4139" x2="549.6578" y2="-33.4632">
			<stop  offset="0" style="stop-color:#FEC733"/>
			<stop  offset="0.2178" style="stop-color:#FDC533"/>
			<stop  offset="0.3436" style="stop-color:#FABE34"/>
			<stop  offset="0.4459" style="stop-color:#F6B334"/>
			<stop  offset="0.5357" style="stop-color:#F0A334"/>
			<stop  offset="0.6172" style="stop-color:#EA9033"/>
			<stop  offset="0.6928" style="stop-color:#E37A32"/>
			<stop  offset="0.7631" style="stop-color:#DC5E30"/>
			<stop  offset="0.8287" style="stop-color:#D5352E"/>
			<stop  offset="0.8333" style="stop-color:#D4322E"/>
		</linearGradient>
		<path class="st3" d="M4.2,382.32c5.56-15.12,12.41-30,20.33-44.59l-4.18-22.83C12.3,336.97,6.82,359.52,4.2,382.32z"/>
		<linearGradient id="SVGID_4_" gradientUnits="userSpaceOnUse" x1="-70.6947" y1="326.6406" x2="511.4231" y2="-87.2355">
			<stop  offset="0" style="stop-color:#FEC733"/>
			<stop  offset="0.2178" style="stop-color:#FDC533"/>
			<stop  offset="0.3436" style="stop-color:#FABE34"/>
			<stop  offset="0.4459" style="stop-color:#F6B334"/>
			<stop  offset="0.5357" style="stop-color:#F0A334"/>
			<stop  offset="0.6172" style="stop-color:#EA9033"/>
			<stop  offset="0.6928" style="stop-color:#E37A32"/>
			<stop  offset="0.7631" style="stop-color:#DC5E30"/>
			<stop  offset="0.8287" style="stop-color:#D5352E"/>
			<stop  offset="0.8333" style="stop-color:#D4322E"/>
		</linearGradient>
		<path class="st4" d="M142.46,147.36l8.81,48.13c18.75-14.03,38.8-27.19,60.08-39.3l-9.61-52.49
			C180.56,117.24,160.75,131.86,142.46,147.36z"/>
		<linearGradient id="SVGID_5_" gradientUnits="userSpaceOnUse" x1="-67.6702" y1="330.8932" x2="514.4484" y2="-82.9835">
			<stop  offset="0" style="stop-color:#FEC733"/>
			<stop  offset="0.2178" style="stop-color:#FDC533"/>
			<stop  offset="0.3436" style="stop-color:#FABE34"/>
			<stop  offset="0.4459" style="stop-color:#F6B334"/>
			<stop  offset="0.5357" style="stop-color:#F0A334"/>
			<stop  offset="0.6172" style="stop-color:#EA9033"/>
			<stop  offset="0.6928" style="stop-color:#E37A32"/>
			<stop  offset="0.7631" style="stop-color:#DC5E30"/>
			<stop  offset="0.8287" style="stop-color:#D5352E"/>
			<stop  offset="0.8333" style="stop-color:#D4322E"/>
		</linearGradient>
		<path class="st5" d="M76.3,215.73l7.38,40.3c17.52-18.93,37.12-36.91,58.58-53.69l-8.66-47.29
			C112.16,174.1,92.95,194.42,76.3,215.73z"/>
		<linearGradient id="SVGID_6_" gradientUnits="userSpaceOnUse" x1="-54.3065" y1="349.6891" x2="527.8106" y2="-64.1865">
			<stop  offset="0" style="stop-color:#FEC733"/>
			<stop  offset="0.2178" style="stop-color:#FDC533"/>
			<stop  offset="0.3436" style="stop-color:#FABE34"/>
			<stop  offset="0.4459" style="stop-color:#F6B334"/>
			<stop  offset="0.5357" style="stop-color:#F0A334"/>
			<stop  offset="0.6172" style="stop-color:#EA9033"/>
			<stop  offset="0.6928" style="stop-color:#E37A32"/>
			<stop  offset="0.7631" style="stop-color:#DC5E30"/>
			<stop  offset="0.8287" style="stop-color:#D5352E"/>
			<stop  offset="0.8333" style="stop-color:#D4322E"/>
		</linearGradient>
		<path class="st6" d="M27.37,297.22l4.93,26.91c12.15-20.25,26.49-39.85,42.87-58.58l-7.12-38.85
			C51.56,249.3,37.88,272.92,27.37,297.22z"/>
		<linearGradient id="SVGID_7_" gradientUnits="userSpaceOnUse" x1="-44.0309" y1="364.1432" x2="538.0864" y2="-49.7326">
			<stop  offset="0" style="stop-color:#FEC733"/>
			<stop  offset="0.2178" style="stop-color:#FDC533"/>
			<stop  offset="0.3436" style="stop-color:#FABE34"/>
			<stop  offset="0.4459" style="stop-color:#F6B334"/>
			<stop  offset="0.5357" style="stop-color:#F0A334"/>
			<stop  offset="0.6172" style="stop-color:#EA9033"/>
			<stop  offset="0.6928" style="stop-color:#E37A32"/>
			<stop  offset="0.7631" style="stop-color:#DC5E30"/>
			<stop  offset="0.8287" style="stop-color:#D5352E"/>
			<stop  offset="0.8333" style="stop-color:#D4322E"/>
		</linearGradient>
		<path class="st7" d="M351.1,34.36l11.01,60.1c18.91-5.15,38.28-9.59,58.1-13.22c1.04-0.19,2.06-0.34,3.1-0.52l-11.47-62.64
			C391.06,22.67,370.79,28.1,351.1,34.36z"/>
		<linearGradient id="SVGID_8_" gradientUnits="userSpaceOnUse" x1="-25.0424" y1="390.8523" x2="557.0756" y2="-23.024">
			<stop  offset="0" style="stop-color:#FEC733"/>
			<stop  offset="0.2178" style="stop-color:#FDC533"/>
			<stop  offset="0.3436" style="stop-color:#FABE34"/>
			<stop  offset="0.4459" style="stop-color:#F6B334"/>
			<stop  offset="0.5357" style="stop-color:#F0A334"/>
			<stop  offset="0.6172" style="stop-color:#EA9033"/>
			<stop  offset="0.6928" style="stop-color:#E37A32"/>
			<stop  offset="0.7631" style="stop-color:#DC5E30"/>
			<stop  offset="0.8287" style="stop-color:#D5352E"/>
			<stop  offset="0.8333" style="stop-color:#D4322E"/>
		</linearGradient>
		<path class="st8" d="M493.27,5.09c-18.75,1.88-37.66,4.51-56.69,8c-4.98,0.91-9.93,1.89-14.86,2.9l11.55,63.07
			c24.27-3.97,48.34-6.69,72.07-8.07L493.27,5.09z"/>
	</g>
</g>
</svg>
